<svg width="288" height="208" viewBox="0 0 288 208" fill="none" xmlns="http://www.w3.org/2000/svg">
<path d="M70.2546 75.067L69.768 74.9745L69.3019 74.8779L68.7974 74.8034L68.3135 74.7109L67.3223 74.5784L66.3161 74.4652L65.8103 74.4086L65.3072 74.3714L64.804 74.3341L64.279 74.2969L63.7937 74.2596L63.2906 74.2403H62.8067H62.32H61.7964H61.2754L60.7517 74.2596L60.2294 74.2969L59.6893 74.3341L59.1465 74.3893L58.6242 74.4459L58.1005 74.5204L57.5604 74.6157L57.0381 74.7109L56.5336 74.8213L56.0291 74.9552L55.526 75.1042L55.0407 75.274L54.5732 75.4424L54.1058 75.6508L53.6575 75.8757L53.2476 76.12L52.8363 76.3836L52.4635 76.6652L52.0892 76.9661L51.7725 77.3042L51.4545 77.6423L51.157 78.0384L50.8952 78.4318L50.6717 78.8651L50.4661 79.3164L50.2989 79.805L50.1851 80.3143L50.0932 80.8581L50.0178 81.4419L50 82.0422L50.037 82.8896L50.1481 83.6598L50.2989 84.3747L50.5401 85.0151L50.8212 85.5961L51.157 86.1426L51.5491 86.6298L51.9603 87.0466L52.4264 87.44L52.9296 87.7781L53.4532 88.0983L53.9755 88.3605L54.5527 88.6062L55.1339 88.8325L55.7111 89.0189L56.2896 89.1886L58.6063 89.6965L60.6215 90.1658L61.0506 90.2982L61.4427 90.4294L61.7593 90.5812L62.0596 90.7675L62.2816 90.9566L62.4516 91.1815L62.5627 91.4451L62.5997 91.7281L62.5819 91.8399V91.9337L62.5449 92.0469L62.5065 92.1407L62.4516 92.2346L62.3954 92.3271L62.32 92.4044L62.2638 92.4968L62.1706 92.5727L62.0774 92.6473L61.9828 92.7218L61.8526 92.7797L61.7415 92.8557L61.6305 92.9109L61.4797 92.9481L61.3495 93.0047L61.0506 93.0972L60.7326 93.1745L60.3967 93.2311L60.043 93.3056L59.6701 93.3249L59.2781 93.3622L58.886 93.3801H58.4761H57.9524L57.4479 93.3622L56.9051 93.3249L56.3842 93.2876L55.8618 93.2311L55.319 93.1551L54.7775 93.0792L54.2566 92.9854L53.7329 92.8736L53.2092 92.7618L52.6883 92.6293L52.1824 92.4789L51.6793 92.3271L51.194 92.1601L50.7101 91.9889L50.2413 91.8012V98.0436L50.876 98.1954L51.5121 98.3265L52.1262 98.4383L52.7445 98.5708L53.3408 98.6647L53.9577 98.7599L54.5527 98.8538L55.1517 98.9283L55.7494 98.9849L56.3458 99.0415L56.9627 99.0787L57.5604 99.1174L58.1951 99.1533L58.8284 99.1712H59.4645L60.1184 99.1919L60.6215 99.1712H61.1246L61.6483 99.1533L62.1528 99.1174L62.6737 99.0594L63.1782 99.0028L63.684 98.9283L64.1858 98.8344L64.6903 98.7392L65.1769 98.6095L65.68 98.477L66.1461 98.3445L66.6122 98.1761L67.0811 97.9884L67.528 97.7814L67.9584 97.5744L68.3683 97.3287L68.7604 97.0679L69.1346 96.8042L69.4883 96.502L69.8434 96.1832L70.16 95.8437L70.4397 95.4683L70.7207 95.0915L70.9442 94.6788L71.169 94.2468L71.3541 93.7955L71.5049 93.3056L71.6337 92.7991L71.7091 92.2525L71.7667 91.6894L71.7859 91.1056L71.7461 90.261L71.6529 89.5074L71.4857 88.7925L71.243 88.1549L70.9647 87.5711L70.6275 87.0466L70.2546 86.5553L69.8256 86.1426L69.3581 85.7659L68.8728 85.4084L68.3491 85.1255L67.8076 84.8439L67.2305 84.6203L66.6684 84.4119L66.0913 84.2242L65.495 84.0545L63.1782 83.5659L61.1616 83.1339L60.7326 83.0207L60.3597 82.8703L60.0224 82.7378L59.7442 82.5694L59.5015 82.3804L59.3521 82.1554L59.2397 81.9111L59.2013 81.6296V81.4791L59.2205 81.348L59.2575 81.2348L59.3151 81.1217L59.3713 81.0099L59.4453 80.9146L59.5193 80.8208L59.6126 80.7269L59.7071 80.6524L59.8182 80.5751L59.9498 80.5006L60.0622 80.444L60.1924 80.3888L60.3405 80.3336L60.4913 80.295L60.6393 80.2563L60.9382 80.1804L61.2576 80.1431L61.5907 80.1073L61.9088 80.0686L62.5627 80.0507H63.1412H63.6278L64.1131 80.0686L64.597 80.0879L65.0631 80.1252L65.532 80.1804L65.9981 80.237L66.445 80.295L66.8933 80.3695L67.3415 80.4633L67.7706 80.5572L68.2189 80.6524L68.6288 80.7463L69.0414 80.876L69.4513 80.9892L69.8626 81.1217L70.2546 81.2528V75.067Z" fill="#225DA5"/>
<path d="M71.5789 98.7764L79.9809 74.6529H92.6354L101.205 98.7764H91.5524L86.1951 79.8229H86.1389L80.7431 98.7764H71.5789Z" fill="#225DA5"/>
<path d="M109.418 86.725V85.7851L109.456 85.2593L109.512 84.7072L109.53 84.4436L109.567 84.1676L109.622 83.8916L109.662 83.628L109.736 83.3519L109.792 83.0759L109.885 82.8137L109.978 82.5501L110.072 82.3044L110.166 82.0436L110.295 81.8172L110.425 81.5716L110.562 81.3659L110.73 81.1575L110.9 80.9505L111.067 80.7821L111.272 80.6317L111.477 80.4812L111.702 80.3432L111.944 80.248L112.205 80.1555L112.479 80.0989L112.776 80.0603H113.393L113.692 80.0989L113.973 80.1555L114.232 80.248L114.476 80.3432L114.719 80.4812L114.942 80.6317L115.148 80.7821L115.315 80.9505L115.502 81.1575L115.652 81.3659L115.8 81.5716L115.938 81.8172L116.066 82.0436L116.16 82.3044L116.253 82.5501L116.367 82.8137L116.439 83.0759L116.515 83.3519L116.571 83.628L116.626 83.8916L116.663 84.1676L116.703 84.4436L116.74 84.7072L116.796 85.2593L116.833 85.7851L116.851 86.2723V87.2136L116.833 87.7394L116.796 88.2846L116.777 88.8504L116.74 89.1265L116.703 89.4094L116.645 89.6854L116.608 89.949L116.552 90.2251L116.478 90.4887L116.404 90.7523L116.328 91.0159L116.234 91.2602L116.105 91.5045L115.992 91.7308L115.855 91.9364L115.718 92.1435L115.551 92.3491L115.391 92.5327L115.204 92.701L114.979 92.8529L114.775 92.9826L114.532 93.1206L114.288 93.2131L114.014 93.289L113.733 93.3263L113.415 93.3635L113.079 93.3815L112.78 93.3635L112.483 93.3263L112.239 93.289L111.977 93.2131L111.736 93.1206L111.511 92.9826L111.307 92.8529L111.119 92.701L110.931 92.5327L110.761 92.3615L110.613 92.1559L110.465 91.9489L110.328 91.7432L110.217 91.5169L110.106 91.2726L110.01 91.0283L109.918 90.7647L109.825 90.5011L109.751 90.2375L109.695 89.9615L109.638 89.6979L109.6 89.4218L109.545 89.1389L109.508 88.8629L109.47 88.297L109.433 87.7518L109.414 87.226L109.418 86.725ZM126.463 86.725L126.444 85.9535L126.406 85.24L126.33 84.5499L126.219 83.8598L126.082 83.2029L125.933 82.5818L125.746 81.9608L125.541 81.3604L125.298 80.7959L125.036 80.2439L124.762 79.7194L124.445 79.2308L124.092 78.7312L123.719 78.2813L123.327 77.8493L122.915 77.4353L122.466 77.0599L121.998 76.7024L121.495 76.3643L120.992 76.062L120.444 75.7611L119.884 75.4975L119.287 75.2533L118.69 75.0476L118.061 74.8668L117.426 74.6984L116.756 74.5604L116.071 74.4472L115.343 74.3548L114.615 74.2982L113.848 74.2416H112.292L111.545 74.2982L110.817 74.3548L110.11 74.4472L109.418 74.5604L108.746 74.6984L108.092 74.8668L107.477 75.0559L106.879 75.2615L106.283 75.5058L105.723 75.7694L105.2 76.0703L104.677 76.3726L104.211 76.7107L103.724 77.0612L103.295 77.4366L102.884 77.8507L102.492 78.2827L102.137 78.7312L101.801 79.2225L101.486 79.7111L101.205 80.2356L100.931 80.7876L100.683 81.3535L100.495 81.9539L100.31 82.5749L100.159 83.196L100.029 83.8529L99.9354 84.543L99.86 85.2331L99.8038 85.9466V87.4648L99.86 88.199L99.9354 88.9125L100.029 89.5902L100.159 90.2665L100.31 90.9055L100.495 91.5265L100.683 92.1283L100.924 92.6914L101.198 93.2365L101.479 93.7651L101.794 94.2717L102.13 94.7409L102.485 95.1922L102.877 95.6256L103.289 96.0203L103.718 96.3971L104.204 96.7725L104.67 97.0927L105.193 97.4129L105.716 97.6737L106.276 97.9373L106.872 98.183L107.47 98.3886L108.085 98.5777L108.739 98.7268L109.411 98.8786L110.103 98.9724L110.811 99.0649L111.552 99.1574L112.299 99.1753L113.083 99.196L113.848 99.1753L114.615 99.1574L115.343 99.0815L116.071 98.989L116.756 98.8951L117.426 98.7433L118.061 98.5943L118.697 98.4052L119.293 98.1995L119.891 97.9539L120.45 97.6903L120.999 97.4294L121.502 97.1092L122.005 96.789L122.473 96.4136L122.922 96.0369L123.333 95.6421L123.725 95.2088L124.098 94.7575L124.452 94.2882L124.769 93.7817L125.043 93.2531L125.305 92.7079L125.547 92.1448L125.753 91.5431L125.939 90.922L126.089 90.283L126.226 89.6068L126.337 88.9291L126.412 88.2156L126.451 87.4813L126.463 86.725Z" fill="#225DA5"/>
<path d="M152.241 98.7764H176.211V91.6508H161.445V74.6529H152.241V98.7764Z" fill="#225DA5"/>
<path d="M185.376 74.6543H176.174V89.3004L176.193 89.9587L176.23 90.5798L176.304 91.1995L176.418 91.7639L176.529 92.327L176.696 92.8543L176.884 93.3622L177.106 93.8521L177.332 94.3214L177.591 94.7533L177.872 95.1674L178.19 95.5621L178.507 95.9375L178.862 96.2784L179.236 96.6138L179.627 96.916L180.057 97.199L180.467 97.4626L180.933 97.7041L181.382 97.9318L181.868 98.1582L182.371 98.3265L182.894 98.4963L183.416 98.6453L183.958 98.7778L184.518 98.891L185.097 98.9849L185.675 99.0594L186.273 99.1174L186.869 99.1532L187.486 99.1712L188.103 99.1919L188.773 99.1712L189.446 99.1532L190.08 99.1174L190.715 99.0594L191.312 98.9849L191.91 98.909L192.49 98.7958L193.049 98.6647L193.589 98.5156L194.095 98.3638L194.617 98.1761L195.083 97.9691L195.55 97.7441L195.999 97.4998L196.428 97.2362L196.82 96.9354L197.212 96.6138L197.585 96.2784L197.902 95.9182L198.219 95.5428L198.519 95.1301L198.799 94.6788L199.04 94.2275L199.266 93.7376L199.451 93.231L199.639 92.6845L199.769 92.1035L199.901 91.5197L199.994 90.8793L200.068 90.2209L200.105 89.5267L200.124 88.8311V74.6543H191.126V88.9816V89.4315L191.108 89.8455L191.071 90.2403L191.015 90.6184L190.978 90.7854L190.941 90.9566L190.904 91.1249L190.827 91.2933L190.79 91.4451L190.715 91.5763L190.642 91.7267L190.586 91.8592L190.492 91.9889L190.398 92.1228L190.305 92.2153L190.194 92.327L190.08 92.4416L189.95 92.5161L189.819 92.5907L189.688 92.6845L189.54 92.7411L189.372 92.7991L189.202 92.8543L189.035 92.8929L188.83 92.9302L188.645 92.9495L188.438 92.9674H188.215H188.008L187.823 92.9495L187.636 92.9109L187.467 92.8929L187.298 92.8543L187.132 92.7991L186.983 92.7232L186.832 92.6666L186.721 92.5907L186.591 92.4982L186.459 92.4043L186.347 92.3091L186.235 92.1959L186.141 92.0841L186.048 91.9516L185.974 91.8205L185.881 91.6687L185.826 91.5376L185.749 91.3886L185.693 91.2188L185.638 91.0684L185.582 90.8986L185.545 90.7302L185.508 90.5605L185.452 90.1657L185.394 89.789L185.376 89.3763V88.9623V74.6543Z" fill="#225DA5"/>
<path d="M212.912 74.6529H203.708V98.7764H212.912V74.6529Z" fill="#225DA5"/>
<path d="M216.272 74.6543V80.8774H227.602L215.862 91.4451V98.7778H238V92.3464H226.258L237.627 81.9677V74.6543H216.272Z" fill="#225DA5"/>
<path d="M92.7849 67H80.0728V71.382H92.7849V67Z" fill="#225DA5"/>
<path d="M152.241 101.091H176.211V108.217H161.445V125.214H152.241V101.091Z" fill="#225DA5"/>
<path d="M149.965 98.7764H125.994V91.6508H140.761V74.6529H149.965V98.7764Z" fill="#225DA5"/>
<path d="M149.965 101.091H125.994V108.217H140.761V125.214H149.965V101.091Z" fill="#225DA5"/>
<path d="M163.645 129.446H166.517V139.822H163.645V129.446Z" fill="#225DA5"/>
<path d="M169.018 137.332V134.075H168.075V131.802H169.018V129.772H171.814V131.802H173.671V134.075H171.814V136.787C171.814 137.351 172.065 137.588 172.581 137.588C172.949 137.58 173.311 137.489 173.64 137.321V139.529C173.042 139.846 172.373 140.004 171.696 139.989C170.019 139.985 169.018 139.244 169.018 137.332Z" fill="#225DA5"/>
<path d="M174.775 137.525V137.496C174.775 135.84 176.026 134.976 177.895 134.976C178.548 134.976 179.196 135.081 179.815 135.288V135.15C179.815 134.322 179.299 133.846 178.224 133.846C177.471 133.845 176.725 133.996 176.031 134.29L175.458 132.304C176.478 131.874 177.576 131.662 178.682 131.682C180.111 131.682 181.081 132.023 181.715 132.659C182.319 133.252 182.569 134.083 182.569 135.21V139.819H179.795V138.991C179.247 139.598 178.5 139.999 177.454 139.999C175.938 140 174.775 139.125 174.775 137.525ZM179.839 136.918V136.546C179.49 136.407 179.118 136.337 178.743 136.338C177.934 136.338 177.462 136.739 177.462 137.332V137.361C177.462 137.913 177.874 138.236 178.449 138.236C179.265 138.236 179.839 137.717 179.839 136.917V136.918Z" fill="#225DA5"/>
<path d="M184.286 129H187.202V131.07H184.286V129ZM184.345 131.802H187.143V139.822H184.345V131.802Z" fill="#225DA5"/>
<path d="M188.998 131.802H191.796V132.906C192.312 132.239 193.048 131.632 194.166 131.632C195.226 131.632 196.036 132.106 196.464 132.936C197.149 132.136 197.965 131.632 199.129 131.632C200.822 131.632 201.853 132.699 201.853 134.566V139.829H199.055V135.463C199.055 134.59 198.629 134.13 197.958 134.13C197.288 134.13 196.809 134.59 196.809 135.463V139.822H194.013V135.463C194.013 134.59 193.585 134.13 192.916 134.13C192.247 134.13 191.782 134.59 191.782 135.463V139.822H188.984L188.998 131.802Z" fill="#225DA5"/>
</svg>
